<svg xmlns="http://www.w3.org/2000/svg" width="600" height="600" viewBox="0 0 600 600" version="1.1"><path d="M 379.870 65.060 C 373.249 66.627, 364.668 71.008, 356.271 77.109 C 351.708 80.424, 344.718 84.704, 340.738 86.621 L 333.500 90.106 340.500 89.535 C 346.556 89.041, 349.388 88.027, 361.500 82.020 C 380.319 72.686, 390.519 70.239, 403.199 72.016 C 412.076 73.260, 418.750 76.393, 425.894 82.669 C 429.862 86.154, 430.947 86.758, 429.999 84.954 C 425.091 75.615, 418.462 69.758, 408.712 66.145 C 404.157 64.457, 400.857 64.021, 393.212 64.100 C 387.871 64.156, 381.867 64.587, 379.870 65.060 M 309.357 69.082 C 304.139 71.089, 295.824 77.592, 293.914 81.160 C 292.937 82.987, 293.119 83.070, 296.684 82.425 L 300.500 81.734 298 84.512 C 296.625 86.039, 290.517 90.997, 284.427 95.529 C 278.337 100.061, 271.664 105.733, 269.599 108.134 C 261.134 117.978, 254.988 132.604, 255.015 142.839 C 255.033 149.365, 256.036 151.584, 258.537 150.624 C 260.006 150.060, 260.185 149.084, 259.694 144.320 C 258.548 133.225, 262.342 123.201, 269.290 118.965 C 274.710 115.660, 275.002 116.732, 270.508 123.435 C 262.848 134.857, 259.475 147.150, 262.432 152.868 C 265.191 158.204, 269.500 156.387, 271.911 148.871 C 273.630 143.513, 275.599 142.308, 283.508 141.774 C 291.459 141.238, 295.850 139.360, 301.250 134.187 C 305.885 129.746, 306.066 128.439, 301.687 131.022 C 299.865 132.097, 295.506 133.369, 292.001 133.848 L 285.628 134.720 289.564 131.622 C 291.729 129.918, 297.103 125.104, 301.507 120.925 C 311.724 111.228, 317.915 108.581, 328.803 109.255 C 338.364 109.846, 339.697 111.192, 333.573 114.071 C 330.992 115.284, 327.445 118.065, 325.691 120.251 C 318.967 128.628, 315.689 132.029, 312.351 134.092 C 310.450 135.267, 309.074 136.407, 309.293 136.627 C 310.030 137.363, 324.446 134.208, 330 132.094 C 336.818 129.499, 337.365 129.496, 336.695 132.057 C 336.399 133.189, 336.459 133.972, 336.829 133.797 C 337.198 133.623, 341.657 131.346, 346.739 128.736 C 383.444 109.885, 414.518 110.916, 434.379 131.643 C 439.632 137.125, 440 136.887, 436.585 130.217 C 431.547 120.379, 420.473 111.665, 407.138 107.048 L 399.108 104.267 403.804 101.234 C 412.128 95.857, 425.041 94.767, 436.500 98.476 C 437.600 98.831, 436.925 98.206, 435 97.086 C 421.868 89.442, 402.242 89.172, 385.116 96.399 C 365.042 104.869, 361.270 106.276, 357.596 106.667 C 353.589 107.093, 353.554 107.071, 356 105.629 C 357.375 104.819, 362.033 100.279, 366.352 95.540 C 370.746 90.718, 376.470 85.624, 379.352 83.971 C 383.595 81.538, 384.060 81.021, 382 81.031 C 378.147 81.051, 371.739 84.345, 362.507 91.053 C 350.316 99.909, 343.126 102.181, 326.334 102.482 C 311.873 102.741, 312.237 102.620, 301.856 110.635 C 295.253 115.734, 291.928 116.992, 292.683 114.106 C 292.967 113.019, 294.055 111.356, 295.100 110.410 C 298.752 107.105, 296.953 106.908, 291.188 109.980 C 287.992 111.684, 283.020 115.140, 280.139 117.660 C 274.995 122.160, 274.914 122.190, 275.589 119.371 C 276.536 115.411, 277.864 113.968, 282.452 111.911 L 286.404 110.140 283.676 109.455 C 277.703 107.956, 278.604 101.925, 285.290 98.652 C 287.366 97.636, 291.750 96.561, 295.032 96.263 C 298.784 95.923, 301 95.267, 301 94.496 C 301 92.569, 304.899 88.104, 307.966 86.517 C 309.501 85.724, 315.037 84.438, 320.269 83.659 C 326.845 82.681, 331.416 81.357, 335.076 79.372 C 342.260 75.474, 342.577 73.884, 335.820 75.637 C 332.929 76.387, 326.992 77, 322.627 77 L 314.690 77 316.595 74.892 C 317.643 73.732, 320.975 71.504, 324 69.940 L 329.500 67.096 322 67.100 C 316.936 67.103, 312.829 67.747, 309.357 69.082 M 280.500 86.722 C 275.901 88.583, 269.030 93.053, 266.990 95.513 C 265.685 97.085, 265.555 97.082, 264.986 95.461 C 264.455 93.945, 263.939 94.114, 260.863 96.815 C 258.930 98.513, 256.519 101.740, 255.506 103.987 C 253.564 108.292, 252.045 107.870, 252.015 103.018 C 252.001 100.719, 251.807 100.820, 249.382 104.389 C 246.237 109.016, 242.988 117.890, 243.033 121.725 C 243.051 123.251, 243.936 126.975, 245 130 C 246.064 133.025, 246.949 136.246, 246.967 137.157 C 247.036 140.627, 236.934 147.869, 219.950 156.526 C 210.320 161.434, 202.506 166.054, 201.891 167.204 C 201.295 168.318, 201.104 170.641, 201.468 172.365 C 203.314 181.116, 203.227 183.872, 201.010 186.986 C 199.808 188.674, 196.726 191.122, 194.162 192.426 C 187.608 195.759, 171.873 206.274, 169.604 208.838 C 168.524 210.058, 167.517 213.027, 167.263 215.740 C 166.879 219.852, 167.235 221.072, 169.878 224.698 C 171.560 227.007, 173.851 229.385, 174.969 229.983 C 176.801 230.964, 177 230.776, 177 228.069 C 177 225.928, 178.291 223.613, 181.500 220 C 183.975 217.213, 186 214.218, 186 213.344 C 186 212.068, 185.714 211.993, 184.548 212.960 C 183.664 213.693, 182.196 213.870, 180.798 213.411 C 179.534 212.997, 177.304 212.739, 175.841 212.838 C 173.619 212.988, 173.270 212.682, 173.718 210.969 C 174.013 209.843, 175.677 208.326, 177.416 207.600 C 179.154 206.873, 184.385 203.891, 189.039 200.973 C 193.692 198.054, 200.307 194.352, 203.738 192.745 C 209.054 190.255, 209.835 189.561, 209.027 188.050 C 207.783 185.726, 209.594 183.451, 213.393 182.565 L 216.286 181.890 213.143 178.647 C 211.414 176.864, 210 174.437, 210 173.253 C 210 170.338, 215.247 165.520, 222.446 161.825 C 230.864 157.504, 237.778 152.165, 244.333 144.921 C 249.949 138.715, 250 138.603, 250 132.411 C 250 128.975, 250.281 125.432, 250.624 124.539 C 251.196 123.048, 251.401 123.053, 253.105 124.595 C 255.756 126.994, 257.421 125.251, 260.063 117.312 C 262.881 108.844, 273.942 95.781, 285.500 87.272 C 288.036 85.405, 288.191 85.066, 286.500 85.083 C 285.400 85.094, 282.700 85.831, 280.500 86.722 M 363.112 129.045 C 353.997 131.432, 347.157 134.522, 336.434 141.098 C 327.108 146.817, 324.427 147.095, 324.636 142.321 L 324.771 139.215 321.474 141.453 C 318.949 143.167, 316.139 143.834, 309.475 144.305 C 299.287 145.024, 296.560 146.440, 294.013 152.334 C 290.616 160.200, 290.562 161, 293.433 161 C 295.419 161, 296.007 161.509, 296.030 163.250 C 296.060 165.434, 296.093 165.442, 297.167 163.500 C 300.379 157.693, 306.672 153.450, 310.608 154.438 C 313.773 155.232, 313.635 157.351, 310.250 159.923 C 307.541 161.980, 307.538 161.998, 310 161.119 C 311.375 160.627, 314.705 159.050, 317.399 157.613 C 323.881 154.156, 330.208 154.193, 341.089 157.750 C 349.048 160.352, 350.506 160.500, 368.200 160.500 C 381.827 160.500, 387.239 160.161, 388.150 159.250 C 389.150 158.250, 388.770 158, 386.249 158 C 381.820 158, 373 156.001, 373 154.997 C 373 153.705, 385.328 152.686, 391.549 153.463 C 406.032 155.272, 417.583 160.112, 430.790 169.904 C 435.305 173.252, 439 175.722, 439 175.393 C 439 174.104, 429.538 164.366, 423.847 159.799 C 416.735 154.091, 404.240 147.978, 394.500 145.441 C 387.084 143.509, 369.784 142.886, 360.500 144.217 L 355.500 144.933 362.500 141.531 C 372.573 136.636, 381.691 134.615, 393.500 134.659 C 405.224 134.702, 413.628 136.664, 423 141.547 L 429.500 144.933 425.500 141.430 C 420 136.613, 406.646 130.244, 398.372 128.491 C 388.545 126.409, 372.197 126.666, 363.112 129.045 M 285.279 147.326 C 278.751 149.705, 276.080 154.162, 279.487 156.989 C 281.649 158.783, 283.564 157.656, 286.607 152.798 C 288.087 150.434, 289.682 148.350, 290.149 148.167 C 291.469 147.650, 291.152 145.991, 289.750 146.076 C 289.063 146.118, 287.051 146.680, 285.279 147.326 M 263.063 161.789 C 263.029 163.048, 261.257 165.946, 259.126 168.231 L 255.252 172.384 257.376 174.179 L 259.500 175.974 255.289 179.987 C 249.906 185.116, 251.831 185.129, 259.361 180.014 C 262.584 177.824, 266.859 175.578, 268.861 175.022 C 273.995 173.596, 281.878 173.758, 287.339 175.402 C 293.186 177.161, 292.440 175.772, 285.679 172.310 C 281.700 170.273, 278.591 169.553, 272.262 169.205 C 264.431 168.773, 264.051 168.644, 264.564 166.602 C 264.860 165.420, 264.658 163.339, 264.115 161.976 C 263.135 159.520, 263.126 159.519, 263.063 161.789 M 303.250 166.973 C 300.388 168.272, 299 169.532, 299 170.829 C 299 173.494, 301.528 175.337, 304.237 174.646 C 305.985 174.200, 315.337 167.879, 317.917 165.400 C 319.356 164.017, 306.795 165.364, 303.250 166.973 M 381.406 167.848 C 381.798 168.482, 384.356 169, 387.091 169 C 389.826 169, 393.737 169.744, 395.782 170.653 L 399.500 172.306 396.500 173.035 C 394.749 173.460, 394.289 173.813, 395.395 173.882 C 398.967 174.105, 411.499 180.854, 414.914 184.394 C 417.950 187.542, 418.460 187.753, 419.520 186.304 C 420.564 184.875, 421.500 185.467, 427.106 191.104 C 434.653 198.693, 437.765 204.544, 439.457 214.326 L 440.697 221.500 441.189 216.500 C 442.408 204.089, 438.183 192.300, 429.608 184.190 C 426.650 181.393, 424.443 178.890, 424.704 178.629 C 424.965 178.368, 426.826 178.375, 428.839 178.644 L 432.500 179.132 428.615 176.648 C 426.478 175.281, 420.403 172.726, 415.115 170.970 C 407.092 168.305, 403.447 167.687, 393.097 167.236 C 383.876 166.834, 380.877 166.991, 381.406 167.848 M 334.317 169.503 C 325.511 171.417, 319.748 174.215, 311.331 180.662 C 303.945 186.320, 295.740 189.605, 292.297 188.284 C 291.161 187.848, 290.906 188.038, 291.448 188.915 C 292.739 191.004, 303.252 189.219, 317.500 184.491 C 324.959 182.016, 333.483 179.906, 337.500 179.540 C 349.990 178.401, 366.852 182.831, 378.844 190.402 C 383.011 193.032, 384.200 195, 381.622 195 C 380.865 195, 379.734 195.615, 379.110 196.367 C 378.163 197.509, 379.117 197.653, 384.876 197.241 C 393.435 196.629, 400.508 198.211, 409.082 202.658 C 417.505 207.026, 421.618 211.343, 427.986 222.500 C 432.769 230.880, 435.258 234, 437.160 234 C 437.588 234, 436.152 231.450, 433.969 228.334 C 431.786 225.218, 430 221.956, 429.999 221.084 C 429.998 217.964, 424.054 207.014, 419.938 202.549 C 417.632 200.047, 416.183 198, 416.718 198 C 418.121 198, 429.015 205.317, 432.250 208.432 C 433.762 209.889, 435 210.562, 435 209.928 C 435 209.293, 431.738 205.514, 427.750 201.528 C 421.953 195.734, 418.596 193.366, 411 189.710 C 405.775 187.195, 397.450 183.917, 392.500 182.425 C 378.510 178.207, 378.882 176.949, 393.500 179.042 C 397.350 179.593, 401.400 180.266, 402.500 180.538 C 403.600 180.809, 402.025 179.870, 399 178.450 C 381.203 170.097, 350.881 165.902, 334.317 169.503 M 221.797 174.750 C 219.409 177.510, 218 182.811, 218 189.027 C 218 193.837, 217.639 195.008, 215.750 196.326 L 213.500 197.895 215.750 197.948 C 217.521 197.989, 218.003 198.585, 218.015 200.750 C 218.024 202.262, 218.467 204.175, 219 205 C 219.741 206.146, 219.973 206.182, 219.985 205.151 C 219.993 204.409, 220.709 202.308, 221.575 200.482 L 223.151 197.163 226.715 199.581 C 230.925 202.438, 232.796 202.566, 237.782 200.340 L 241.500 198.680 237.286 198.027 C 233.003 197.364, 229 194.681, 229 192.472 C 229 191.739, 231.025 191.060, 234.093 190.765 C 238.083 190.382, 239.858 189.603, 242.292 187.170 C 246.136 183.326, 245.277 181.996, 240.995 185.162 C 236.633 188.387, 230.088 188.370, 226.634 185.126 C 223.792 182.456, 223.083 179.789, 224.140 175.750 C 224.963 172.607, 224.004 172.198, 221.797 174.750 M 318 190.947 C 305.695 191.586, 300.563 193.181, 293.517 198.555 C 288.747 202.193, 289.087 203.317, 294.250 200.973 C 308.103 194.685, 333.712 204.472, 343.084 219.635 L 345.180 223.028 347.374 219.764 C 349.322 216.865, 350.156 216.466, 354.832 216.196 C 359.635 215.919, 360.356 216.169, 363.048 219.052 C 366.562 222.814, 366.943 227.367, 364.005 230.495 L 362.010 232.618 366.868 232.691 C 378.230 232.863, 390.348 241.906, 395.034 253.712 C 401.173 269.179, 406.400 275, 414.150 275 C 416.268 275, 418 274.550, 418 274 C 418 273.450, 416.685 273, 415.077 273 C 411.863 273, 407.003 268.839, 404.450 263.904 C 403.630 262.317, 402.095 256.853, 401.039 251.760 C 398.532 239.669, 396.566 234.305, 393.020 229.883 L 390.120 226.266 392.810 224.959 C 395.434 223.683, 395.352 223.628, 389.500 222.744 C 384.423 221.976, 382.271 220.918, 375.500 215.862 C 365.619 208.483, 357.612 204.494, 348.500 202.409 C 336.509 199.666, 333.500 198.580, 333.500 197 C 333.500 195.716, 335.692 195.555, 348.750 195.880 C 359.647 196.152, 364 195.938, 364 195.130 C 364 194.495, 362.357 193.989, 360.250 193.974 C 358.188 193.960, 352.675 193.072, 348 192 C 339.249 189.994, 337.533 189.934, 318 190.947 M 375.500 204.838 C 398.245 213.835, 420.002 233.598, 413.890 239.710 C 412.160 241.440, 407.508 239.343, 403.861 235.189 L 400.672 231.557 401.402 234.467 C 402.622 239.327, 405.835 242.862, 415.565 250.048 C 426.202 257.904, 429.023 261.880, 431.917 273.092 L 433.829 280.500 433.897 273 C 434.029 258.550, 429.803 245.118, 421.476 233.510 C 418.512 229.380, 416.311 226, 416.583 226 C 416.856 226, 418.862 226.909, 421.040 228.020 C 423.218 229.132, 425 229.680, 425 229.239 C 425 227.621, 413.318 217.070, 407.192 213.156 C 398.588 207.658, 380.710 201.958, 372.307 202.034 C 368.642 202.068, 368.762 202.172, 375.500 204.838 M 256.667 203.667 C 255.307 205.027, 256.096 206.013, 259.750 207.519 C 261.813 208.369, 264.063 209.812, 264.750 210.724 C 265.734 212.030, 265.995 212.076, 265.978 210.941 C 265.948 209.024, 263.028 205.504, 260.316 204.117 C 257.761 202.811, 257.549 202.785, 256.667 203.667 M 205.571 209.571 C 203.689 211.453, 203.505 213.118, 205.250 212.479 C 205.938 212.227, 207.175 212.453, 208 212.982 C 211.870 215.461, 204.274 219.787, 195.809 219.924 C 190.362 220.012, 188.670 221.484, 193.016 222.353 C 197.035 223.157, 201.523 222.197, 207.351 219.286 C 214.751 215.591, 217.514 217.767, 212.313 223.195 L 209.626 226 212.563 225.978 C 214.178 225.966, 216.625 225.076, 218 224 C 221.360 221.372, 222 221.501, 222 224.809 C 222 230.210, 219.997 231.500, 211.610 231.500 C 205.145 231.500, 203.743 231.819, 201.837 233.722 C 199.276 236.279, 199.874 237.673, 202.849 236.081 C 205.295 234.772, 211.666 234.651, 212.438 235.899 C 213.344 237.366, 206.159 242.990, 203.215 243.118 C 200.198 243.250, 200.297 243.270, 194 241.263 C 186.141 238.758, 182.019 236.744, 179.304 234.085 L 176.665 231.500 178.582 234.873 C 179.637 236.728, 182.637 240.061, 185.250 242.279 C 187.863 244.498, 190 247.165, 190 248.206 C 190 250.958, 192.644 255.637, 195.217 257.439 C 198.572 259.790, 199.225 259.336, 197.444 255.892 C 196.560 254.183, 196.093 251.764, 196.406 250.517 C 196.892 248.581, 197.782 248.183, 202.491 247.792 C 206.675 247.445, 209.113 246.540, 212.594 244.040 L 217.182 240.745 219.841 242.687 C 223.108 245.073, 226.021 250.737, 226.740 256.101 C 227.230 259.752, 226.922 260.496, 223.437 264.064 C 220.537 267.035, 218.804 268, 216.374 268 C 212.302 268, 207.317 263.939, 206.146 259.667 L 205.277 256.500 204.543 260.165 C 204.091 262.422, 204.286 265.148, 205.049 267.260 C 206.174 270.370, 206.066 270.991, 203.896 273.926 C 201.692 276.908, 201.636 277.260, 203.182 278.391 C 204.473 279.335, 204.731 280.585, 204.299 283.805 C 203.645 288.686, 205.309 295.453, 208.039 299.006 C 209.669 301.127, 209.959 301.225, 209.978 299.661 C 209.997 298.040, 210.370 298.133, 213.120 300.447 C 216.704 303.463, 221.147 305.895, 225.192 307.055 C 227.474 307.710, 228 307.546, 228.002 306.180 C 228.003 304.825, 229.075 304.475, 233.550 304.368 C 236.601 304.296, 239.302 304.032, 239.553 303.781 C 239.804 303.530, 239.502 301.870, 238.882 300.092 C 237.542 296.247, 238.209 289.967, 240.271 287.024 C 241.728 284.943, 241.783 284.968, 243.987 288.703 L 246.225 292.495 248.173 287.273 C 250.788 280.262, 254.480 277.692, 262.686 277.169 C 271.415 276.613, 272.112 277, 270.832 281.694 C 268.007 292.049, 261.076 301.962, 250.129 311.304 C 242.217 318.057, 235.824 322.157, 220.902 330.052 C 204.813 338.564, 197.629 343.945, 192.585 351.262 C 189.496 355.742, 188.572 358.112, 188.209 362.488 C 187.681 368.863, 189.233 375.405, 192.129 379.006 C 193.832 381.124, 193.973 381.171, 193.067 379.316 C 191.424 375.952, 191.841 367.941, 193.890 363.500 C 195.882 359.183, 202.046 352.679, 200.523 356.500 C 200.085 357.600, 199.055 361.362, 198.233 364.860 C 195.541 376.331, 199.302 389.406, 208.055 399 L 212.160 403.500 209.956 399.682 C 201.170 384.459, 199.850 372.568, 205.558 360.086 C 210.061 350.242, 213.916 347.281, 231.011 340.539 C 242.153 336.145, 249.394 332.022, 250.351 329.528 C 250.646 328.758, 249.080 329.214, 246.528 330.640 C 243.666 332.240, 239.891 333.250, 235.353 333.631 L 228.500 334.206 234 330.433 C 255.964 315.369, 270.464 298.576, 275.578 282.280 C 276.402 279.651, 277.331 273.225, 277.640 268 L 278.203 258.500 275.498 263.778 C 272.547 269.536, 269.083 271.980, 263.800 272.033 C 261.985 272.051, 258.147 272.878, 255.271 273.872 L 250.043 275.678 250.657 273.231 C 251.199 271.069, 251.051 270.905, 249.385 271.820 C 241.662 276.060, 233.949 285.583, 231.970 293.323 C 231.382 295.620, 230.720 298.043, 230.499 298.706 C 229.981 300.258, 221.596 295.688, 219.518 292.722 C 217.517 289.866, 216.330 291.386, 217.708 295.038 C 219.538 299.885, 216.306 298.504, 213.640 293.300 C 211.583 289.286, 211.557 286.078, 213.557 283.223 C 215.373 280.630, 214.379 280.346, 211.223 282.557 C 208.491 284.470, 208.459 283.981, 210.991 279.018 C 213.679 273.749, 218.835 270.036, 226.296 267.996 L 232.500 266.300 233.161 261.900 C 234.146 255.342, 233.115 250.574, 229.368 244.350 C 225.491 237.912, 225.517 238, 227.500 238 C 229.468 238, 229.408 236.109, 227.368 233.854 C 225.983 232.323, 225.924 231.597, 226.981 229.045 C 227.666 227.392, 227.958 225.018, 227.629 223.769 C 226.919 221.071, 218.379 212, 216.548 212 C 215.845 212, 214.126 211.100, 212.727 210 C 209.665 207.591, 207.671 207.472, 205.571 209.571 M 306.050 212.303 C 314.670 215.526, 325.365 220.969, 324.593 221.740 C 324.364 221.969, 320.874 220.965, 316.838 219.509 C 307.933 216.296, 297.982 213.893, 296.746 214.657 C 296.247 214.966, 299.505 216.719, 303.986 218.553 C 335.405 231.414, 359.006 257.221, 366.896 287.343 C 368.017 291.624, 369.413 300.680, 369.997 307.469 C 371.582 325.868, 374.375 334.818, 380.576 341.361 C 383.510 344.457, 388.679 347, 392.039 347 C 393.891 347, 393.720 346.602, 390.611 343.669 C 386.819 340.093, 385 336.409, 385 332.305 L 385 329.741 389.250 333.241 C 395.241 338.175, 403.650 349.505, 406.140 356 C 407.782 360.282, 408.246 363.714, 408.237 371.500 C 408.220 386.796, 403.655 397.563, 395.556 401.406 C 391.133 403.505, 391.035 404.130, 395.250 403.343 C 403.398 401.823, 410.625 395.086, 414.248 385.634 C 418.022 375.790, 416.488 355.674, 411.020 343.313 C 408.602 337.846, 409.830 337.824, 414.509 343.250 C 419.150 348.631, 421.448 353.099, 423.986 361.679 L 426.005 368.500 425.396 361.505 C 423.994 345.376, 416.974 334.715, 399.319 321.901 C 394.819 318.635, 389.305 313.881, 387.066 311.337 C 378.938 302.104, 373.177 288.349, 372.264 276 L 371.710 268.500 374.105 270.464 C 375.422 271.545, 378.637 274.453, 381.250 276.927 C 383.863 279.401, 386 281.089, 386 280.679 C 386 279.150, 380.576 269.225, 375.245 261 C 364.885 245.015, 353.290 232.631, 340.673 224.072 C 329.816 216.708, 308.999 208.908, 300.590 209.053 C 298.206 209.095, 299.454 209.837, 306.050 212.303 M 242 217.880 C 242 221.263, 244.820 224.786, 248.502 226.001 C 252.816 227.424, 255.178 230, 252.169 230 C 249.421 230, 245.231 231.956, 244.631 233.520 C 244.262 234.481, 244.783 234.531, 246.883 233.738 C 248.923 232.968, 250.361 233.062, 252.558 234.110 C 256.365 235.927, 256.875 240.234, 254.040 246.642 C 251.998 251.258, 251.997 251.313, 253.957 249.539 C 257.244 246.564, 261 237.978, 261 233.439 C 261 227.923, 258.212 224.511, 251.157 221.391 C 248.083 220.031, 244.765 218.192, 243.784 217.305 C 242.124 215.802, 242 215.842, 242 217.880 M 301.384 226.003 C 307.965 233.288, 304.308 237.508, 297.400 230.600 C 293.579 226.779, 293.287 227.177, 295.625 233.021 C 296.519 235.255, 297.016 237.317, 296.730 237.603 C 296.444 237.889, 294.588 236.699, 292.605 234.958 C 288.549 231.397, 288.063 231.951, 291.007 236.780 C 294.496 242.502, 301.451 248.615, 309.029 252.620 C 318.087 257.407, 319.924 259.824, 320.980 268.338 C 321.721 274.311, 326.326 285.007, 327.606 283.728 C 327.842 283.492, 327.312 280.476, 326.428 277.027 C 324.813 270.721, 325.193 257, 326.983 257 C 328.935 257, 334.193 263.898, 336.083 268.938 C 337.770 273.438, 338.104 276.246, 337.834 283.646 C 337.506 292.641, 337.529 292.749, 339.244 290.146 C 340.204 288.691, 341.270 286.017, 341.614 284.204 C 342.227 280.977, 342.283 280.945, 344.271 282.704 C 349.444 287.279, 354.309 303.636, 355.513 320.500 C 357.327 345.926, 364.293 360.490, 375.231 361.723 C 378.953 362.142, 380.088 361.817, 382.567 359.622 L 385.500 357.025 382.280 358.100 C 377.721 359.622, 372.801 357.753, 368.677 352.935 C 364.041 347.520, 363.206 343.949, 362.016 324.472 C 360.247 295.506, 356.944 280.298, 349.237 265.632 C 344.937 257.449, 332.941 244.370, 322.926 236.945 C 315.330 231.314, 300.247 222, 298.724 222 C 298.198 222, 299.395 223.801, 301.384 226.003 M 294.363 253.750 C 302.541 270.047, 309.691 294.122, 312.056 313.329 C 312.790 319.288, 313.053 328.932, 312.725 337.829 C 312.129 353.961, 310.403 362.119, 304.581 376.309 C 300.163 387.076, 297.805 397.734, 297.767 407.104 C 297.732 416.006, 299.395 420.829, 299.682 412.656 C 299.889 406.773, 302.196 399.151, 305.321 394.028 L 307.438 390.555 308.249 394.528 C 310.149 403.834, 312.232 408.835, 316.428 414.160 C 324.865 424.868, 338.958 429.123, 349.006 423.997 C 354.317 421.287, 360.572 414.778, 363.593 408.817 C 366.895 402.301, 366.623 400.640, 363.141 406.054 C 357.561 414.730, 350.560 419, 341.914 419 C 321.861 419, 315.734 406.471, 321.128 376.500 C 325.270 353.485, 324.108 318.005, 318.426 294 C 317.416 289.737, 323.894 300.585, 327.022 308.396 C 328.595 312.324, 330.669 319.546, 331.632 324.445 C 333.839 335.681, 334.606 333.856, 333.010 321.169 C 330.606 302.071, 323.723 284.515, 312.983 270.089 C 306.714 261.669, 293.313 247, 291.889 247 C 291.386 247, 292.499 250.037, 294.363 253.750 M 382.180 259.750 C 388.048 266.067, 393.682 280.492, 395.487 293.823 L 396.208 299.147 392.354 297.180 C 388.373 295.148, 385.668 292.608, 384.709 290 C 384.322 288.946, 384.134 289.111, 384.079 290.554 C 383.934 294.313, 389.092 302.897, 394.328 307.614 C 397.173 310.175, 403.325 314.864, 408 318.032 C 417.603 324.541, 422.833 329.660, 425.847 335.500 L 427.912 339.500 427.956 334.833 C 427.980 332.266, 427.100 328.066, 426 325.500 C 424.900 322.934, 424 320.661, 424 320.448 C 424 319.330, 427.974 321.729, 431.362 324.893 C 435.466 328.726, 435.345 328.913, 433.384 321.750 C 433.045 320.512, 431.695 318.068, 430.384 316.317 C 429.073 314.566, 428 312.950, 428 312.725 C 428 312.500, 429.727 311.799, 431.837 311.167 C 433.948 310.535, 436.439 309.173, 437.373 308.140 C 438.996 306.347, 438.959 306.285, 436.550 306.746 C 431.537 307.704, 427.098 305.985, 421.258 300.824 C 418.091 298.026, 413.250 294.724, 410.500 293.488 C 403.501 290.340, 400.972 287.415, 397.133 278.026 C 394.605 271.843, 392.324 268.281, 387.780 263.424 C 384.475 259.891, 381.288 257, 380.698 257 C 380.108 257, 380.775 258.238, 382.180 259.750 M 284.797 273.821 C 285.759 307.192, 279.287 327.199, 261.457 345.976 C 250.832 357.165, 247.085 361.885, 244.010 367.952 C 235.773 384.202, 235.080 400.321, 242.146 411.292 C 243.283 413.056, 243.888 413.600, 243.491 412.500 C 239.162 400.502, 240.847 387.263, 248.164 375.778 C 252.254 369.358, 262.498 360, 265.435 360 C 273.627 360, 269.509 372.044, 259.500 377.354 L 256.500 378.946 260 378.330 C 266.379 377.208, 271.045 373.800, 273.981 368.118 C 274.658 366.808, 275.548 360.462, 275.960 354.015 C 276.614 343.768, 277.122 341.394, 280.002 335.146 C 281.814 331.215, 283.905 327.494, 284.648 326.877 C 286.156 325.626, 286.524 327.059, 285.079 328.550 C 282.823 330.877, 279.865 342.856, 279.322 351.863 C 278.738 361.557, 280.575 373.005, 283.112 375.491 C 283.817 376.182, 283.883 375.554, 283.321 373.500 C 281.687 367.528, 282.584 358.678, 285.475 352.235 C 286.988 348.864, 289.134 345.294, 290.245 344.303 C 292.263 342.501, 292.263 342.507, 291.717 357.500 C 291.095 374.573, 289.420 381.822, 281.671 401 C 276.748 413.181, 277.806 412.912, 285.144 400.116 C 290.770 390.306, 295.381 377.776, 298.075 364.974 C 301.232 349.971, 301.232 325.608, 298.073 307.504 C 295.869 294.870, 289.919 272.442, 286.183 262.680 L 284.337 257.861 284.797 273.821 M 276.597 289.164 C 273.991 299.281, 267.694 310.954, 260.758 318.523 C 255.165 324.626, 254.633 326.337, 259.066 323.965 C 265.516 320.512, 255.090 332.439, 246.843 337.946 C 243.489 340.186, 238.215 342.747, 235.122 343.638 C 222.846 347.175, 212.705 354.468, 209.867 361.802 C 207.430 368.098, 206.862 376.468, 208.379 383.740 C 210.648 394.625, 214.451 401.491, 222.975 410.097 C 232.749 419.964, 237.113 422.451, 230.311 414.278 C 218.210 399.738, 215.225 389.321, 219.986 378.254 C 222.181 373.151, 226.460 368.126, 227.621 369.288 C 229.993 371.659, 229.390 393.620, 226.870 396.657 C 226.257 397.395, 226.029 398, 226.363 398 C 228.238 398, 232.239 389.201, 234.321 380.500 C 237.940 365.380, 240.850 360.228, 252.481 348.355 C 265.833 334.725, 272.227 323.867, 276.540 307.500 C 278.006 301.940, 279.825 282, 278.867 282 C 278.634 282, 277.612 285.224, 276.597 289.164 M 337.457 309.748 C 341.435 320.115, 340.673 336.928, 335.473 353.500 C 329.490 372.570, 328.948 375.040, 328.911 383.439 C 328.882 390.198, 329.294 392.204, 331.688 396.939 C 335.211 403.907, 341.394 407.574, 347.659 406.413 C 351.669 405.670, 359.020 399.471, 358.978 396.868 C 358.964 395.996, 358.329 396.273, 357.228 397.633 C 353.378 402.386, 347.881 403.268, 343.514 399.832 C 338.043 395.529, 336.730 388.313, 339.828 379.586 C 342.228 372.825, 343.950 371.939, 348.028 375.370 C 354.347 380.687, 358.962 382.453, 366.500 382.437 C 371.720 382.426, 374.697 381.843, 378.206 380.143 C 385.854 376.439, 392.214 367.776, 393.393 359.453 L 393.954 355.500 392.791 358.894 C 391.051 363.974, 381.869 373.393, 377.135 374.955 C 371.212 376.910, 363.683 375.860, 358.750 372.390 C 352.448 367.957, 350.173 362.378, 349.050 348.603 C 348.531 342.239, 347.119 333.313, 345.911 328.766 C 343.662 320.298, 338.654 308, 337.456 308 C 337.087 308, 337.088 308.786, 337.457 309.748 M 366 400 C 366 400.733, 366.300 401.033, 366.667 400.667 C 367.033 400.300, 367.033 399.700, 366.667 399.333 C 366.300 398.967, 366 399.267, 366 400 M 105.594 465.191 C 104.303 468.111, 99.816 478.072, 95.623 487.327 C 91.430 496.582, 88 504.344, 88 504.577 C 88 504.810, 89.836 505, 92.080 505 C 95.912 505, 96.257 504.756, 97.732 501 L 99.303 497 108.636 497 L 117.968 497 116.299 493.500 C 114.710 490.169, 114.380 490, 109.481 490 C 106.650 490, 104.075 489.741, 103.759 489.425 C 103.059 488.726, 111.021 471, 112.035 471 C 112.431 471, 116.161 478.538, 120.325 487.750 L 127.896 504.500 131.948 504.807 C 134.176 504.977, 135.978 504.752, 135.952 504.307 C 135.925 503.863, 131.517 493.825, 126.156 482 L 116.409 460.500 112.175 460.191 L 107.942 459.882 105.594 465.191 M 204 464 L 204 468.121 207.750 467.810 C 211.310 467.516, 211.500 467.323, 211.500 464 C 211.500 460.677, 211.310 460.484, 207.750 460.190 L 204 459.879 204 464 M 294 467.607 C 294 474.455, 293.825 475.143, 292.250 474.505 C 286.736 472.270, 284.628 471.848, 281.725 472.396 C 276.433 473.396, 272.030 476.719, 269.964 481.271 C 265.881 490.264, 268.798 499.627, 276.966 503.750 C 281.824 506.202, 284.527 506.510, 288.367 505.051 C 290.675 504.173, 290.777 503.870, 289.713 501.051 C 288.706 498.382, 288.082 498, 284.735 498 C 279.386 498, 276 494.511, 276 489 C 276 480.482, 285.006 476.852, 291.077 482.923 C 293.901 485.747, 294 486.171, 294 495.423 L 294 505 298 505 L 302 505 302 482.500 L 302 460 298 460 L 294 460 294 467.607 M 335 482.500 L 335 505 338.500 505 L 342 505 342 495.500 L 342 486 351.500 486 L 361 486 361 495.500 L 361 505 365.019 505 L 369.038 505 368.769 482.750 L 368.500 460.500 364.788 460.192 L 361.077 459.884 360.788 469.192 L 360.500 478.500 351.500 478.500 L 342.500 478.500 342.212 469.250 L 341.925 460 338.462 460 L 335 460 335 482.500 M 521 465.894 L 518.500 466.588 518.222 481.519 C 517.914 498.044, 518.620 501.235, 523.091 503.547 C 526.201 505.155, 535 505.538, 535 504.065 C 535 501.220, 532.854 498, 530.959 498 C 526.368 498, 525 496.271, 525 490.465 C 525 485.059, 525.033 485, 528 485 C 531.154 485, 531.613 483.888, 530.370 479.250 C 529.958 477.715, 529.010 477, 527.383 477 C 525.137 477, 525 476.655, 525 471 C 525 467.700, 524.663 465.045, 524.250 465.100 C 523.837 465.155, 522.375 465.512, 521 465.894 M 158.579 473.494 C 156.577 474.567, 155.335 474.735, 154.629 474.029 C 154.063 473.463, 152.115 473, 150.300 473 L 147 473 147 489 L 147 505 151 505 L 155 505 155 494.071 C 155 482.205, 155.864 480, 160.515 480 C 164.747 480, 166 483.364, 166 494.723 L 166 505 169.500 505 L 173 505 173.015 495.250 C 173.024 489.426, 173.537 484.493, 174.290 483 C 175.711 480.181, 178.894 479.338, 181.948 480.972 C 183.834 481.982, 184 482.998, 184 493.535 L 184 505 188 505 L 192 505 191.998 493.250 C 191.997 480.255, 190.609 475.622, 186 473.231 C 183.009 471.679, 176.890 472.371, 173.404 474.655 C 171.146 476.134, 170.805 476.133, 169.159 474.644 C 166.460 472.202, 161.915 471.708, 158.579 473.494 M 204 489.326 C 204 504.989, 203.909 505.734, 201.750 507.677 C 200.512 508.791, 198.713 509.980, 197.750 510.320 C 196.515 510.755, 196 512.013, 196 514.594 C 196 518.183, 196.060 518.238, 199.250 517.613 C 203.064 516.866, 206.564 514.463, 209.438 510.618 C 211.301 508.125, 211.532 506.176, 211.833 490.430 L 212.165 473 208.083 473 L 204 473 204 489.326 M 230.206 475.143 C 223.243 479.601, 220.702 491.327, 225.250 498.010 C 228.620 502.962, 232.297 505.233, 237.676 505.684 C 243.933 506.209, 245.551 505.153, 244.290 501.366 C 243.484 498.942, 242.747 498.467, 239.520 498.285 C 230.054 497.751, 226.883 485.697, 235.091 481.453 C 238.612 479.632, 240.377 479.627, 243.855 481.425 C 247.813 483.472, 249 486.960, 249 496.547 L 249 505 253.025 505 L 257.051 505 256.775 489.250 L 256.500 473.500 253.105 473.176 C 251.238 472.998, 249.400 473.352, 249.022 473.965 C 248.531 474.758, 247.550 474.779, 245.602 474.039 C 241.024 472.298, 233.844 472.813, 230.206 475.143 M 387.898 475.258 C 383.973 477.867, 379.990 485.049, 380.022 489.462 C 380.055 494.025, 383.356 500.405, 387.042 503.030 C 389.148 504.529, 392.134 505.491, 395.408 505.725 C 402.140 506.206, 403.361 505.334, 401.885 501.100 C 400.986 498.521, 400.319 497.945, 398.716 498.364 C 395.982 499.079, 390.415 496.645, 389.080 494.150 C 387.082 490.417, 387.800 486.046, 390.923 482.923 C 394.763 479.084, 398.900 479.045, 403.114 482.810 C 406.141 485.516, 406.278 485.982, 406.766 495.310 L 407.273 505 410.636 505 L 414 505 414 489 L 414 473 410.583 473 C 408.704 473, 406.981 473.557, 406.754 474.238 C 406.426 475.223, 405.784 475.223, 403.624 474.238 C 399.168 472.208, 391.765 472.688, 387.898 475.258 M 425.516 475.052 C 425.875 476.180, 429.080 483.248, 432.640 490.758 C 439.895 506.062, 440.089 508.115, 434.471 510.147 C 431.867 511.088, 430.740 512.213, 430.149 514.460 C 429.466 517.062, 429.643 517.550, 431.381 517.847 C 434.530 518.384, 440.396 516.274, 442.727 513.767 C 444.662 511.686, 462 475.768, 462 473.841 C 462 473.378, 460.290 473, 458.200 473 L 454.401 473 449.529 483.750 C 446.850 489.663, 444.360 494.852, 443.997 495.282 C 443.633 495.712, 440.941 490.875, 438.015 484.532 L 432.693 473 428.779 473 C 425.287 473, 424.935 473.221, 425.516 475.052 M 479.898 475.258 C 475.973 477.867, 471.990 485.049, 472.022 489.462 C 472.055 494.025, 475.356 500.405, 479.042 503.030 C 481.148 504.529, 484.134 505.491, 487.408 505.725 C 494.140 506.206, 495.361 505.334, 493.885 501.100 C 492.986 498.521, 492.319 497.945, 490.716 498.364 C 487.982 499.079, 482.415 496.645, 481.080 494.150 C 479.082 490.417, 479.800 486.046, 482.923 482.923 C 486.763 479.084, 490.900 479.045, 495.114 482.810 C 498.141 485.516, 498.278 485.982, 498.766 495.310 L 499.273 505 502.636 505 L 506 505 506 489 L 506 473 502.583 473 C 500.704 473, 498.981 473.557, 498.754 474.238 C 498.426 475.223, 497.784 475.223, 495.624 474.238 C 491.168 472.208, 483.765 472.688, 479.898 475.258 M 257.118 529.750 C 257.194 534.704, 257.466 536.418, 257.873 534.500 C 258.384 532.089, 259.098 531.433, 261.505 531.162 C 265.165 530.748, 267 529.341, 267 526.949 C 267 524.123, 264.180 522, 260.429 522 L 257 522 257.118 529.750 M 276 529.500 C 276 533.833, 276.422 537, 277 537 C 277.550 537, 278 535.650, 278 534 C 278 531.731, 278.458 531, 279.879 531 C 281.023 531, 282.243 532.172, 283 534 C 283.683 535.650, 284.638 537, 285.121 537 C 286.320 537, 286.175 535.944, 284.580 533.064 C 283.442 531.010, 283.448 530.410, 284.615 529.242 C 287.757 526.100, 284.820 522, 279.429 522 L 276 522 276 529.500 M 296 529.500 L 296 537 300.559 537 C 303.344 537, 304.878 536.611, 304.500 536 C 304.160 535.450, 302.302 535, 300.371 535 C 297.303 535, 296.901 534.717, 297.180 532.750 C 297.422 531.046, 298.350 530.360, 301 529.923 L 304.500 529.347 301 528.923 C 298.046 528.566, 297.500 528.110, 297.500 526 C 297.500 523.927, 298.098 523.394, 301 522.882 L 304.500 522.263 300.250 522.132 L 296 522 296 529.500 M 314 529.417 C 314 537.975, 315.733 539.815, 316.198 531.750 L 316.500 526.500 318.330 531.750 C 319.337 534.638, 320.486 537, 320.883 537 C 321.280 537, 322.481 534.638, 323.552 531.750 L 325.500 526.500 325.802 531.750 C 326.264 539.773, 328 537.996, 328 529.500 C 328 520.269, 326.267 519.491, 323.545 527.500 C 322.516 530.525, 321.408 533, 321.081 533 C 320.754 533, 319.588 530.674, 318.490 527.832 C 315.429 519.908, 314 520.412, 314 529.417 M 339.343 529.500 C 339.346 533.900, 339.522 535.576, 339.733 533.224 C 339.945 530.872, 339.942 527.272, 339.727 525.224 C 339.512 523.176, 339.339 525.100, 339.343 529.500 M 351.399 528.480 C 351.495 535.136, 351.626 535.503, 354.220 536.412 C 358.686 537.977, 361 535.052, 361 527.845 C 361 520.013, 359.174 520.348, 358.798 528.250 C 358.513 534.219, 358.378 534.514, 355.785 534.813 C 352.780 535.160, 352.326 534.190, 351.663 526 C 351.462 523.525, 351.344 524.641, 351.399 528.480 M 371 529.417 C 371 537.975, 372.733 539.815, 373.198 531.750 L 373.500 526.500 375.330 531.750 C 376.337 534.638, 377.486 537, 377.883 537 C 378.280 537, 379.481 534.638, 380.552 531.750 L 382.500 526.500 382.802 531.750 C 383.264 539.773, 385 537.996, 385 529.500 C 385 520.269, 383.267 519.491, 380.545 527.500 C 379.516 530.525, 378.408 533, 378.081 533 C 377.754 533, 376.588 530.674, 375.490 527.832 C 372.429 519.908, 371 520.412, 371 529.417 M 258.384 524.442 C 257.212 527.495, 258.448 529.500, 261.500 529.500 C 263.644 529.500, 264.576 528.961, 264.845 527.566 C 265.493 524.201, 259.575 521.339, 258.384 524.442 M 278 526 C 278 528.543, 278.385 529, 280.531 529 C 281.924 529, 283.324 528.319, 283.643 527.487 C 284.396 525.525, 282.277 523, 279.878 523 C 278.458 523, 278 523.732, 278 526 M 305.200 549.200 C 303.140 551.260, 303.890 552.409, 306.031 550.472 C 307.886 548.793, 308.200 548.771, 309.649 550.221 C 311.382 551.954, 310.728 554, 308.441 554 C 306.249 554, 306.722 555.694, 309.087 556.312 C 310.434 556.665, 311.050 557.500, 310.825 558.668 C 310.401 560.872, 307.050 561.699, 305.924 559.877 C 305.476 559.152, 304.795 558.872, 304.412 559.255 C 303.407 560.260, 305.952 563.003, 307.872 562.985 C 310.569 562.959, 312.104 561.458, 312.038 558.910 C 312.004 557.585, 311.987 554.955, 312.002 553.068 C 312.037 548.441, 308.162 546.238, 305.200 549.200 M 322.980 549.524 C 321.236 551.625, 322.535 552.608, 324.481 550.662 C 326.361 548.782, 329 549.521, 329 551.927 C 329 552.869, 327.425 555.480, 325.500 557.729 C 323.575 559.978, 322 562.084, 322 562.409 C 322 562.734, 324.025 563, 326.500 563 C 328.975 563, 331 562.550, 331 562 C 331 561.450, 329.610 561, 327.911 561 L 324.822 561 327.342 558.005 C 330.591 554.145, 331.470 551.271, 329.960 549.452 C 328.385 547.555, 324.582 547.594, 322.980 549.524 M 342.250 548.662 C 341.563 548.940, 341 549.836, 341 550.655 C 341 551.919, 341.243 551.900, 342.616 550.527 C 344.626 548.517, 346.405 549.014, 346.802 551.698 C 347.009 553.095, 346.378 553.978, 344.802 554.497 L 342.500 555.254 344.750 555.697 C 347.725 556.282, 348 561, 345.059 561 C 343.991 561, 342.840 560.550, 342.500 560 C 341.538 558.444, 339.995 558.824, 340.624 560.462 C 341.418 562.531, 344.563 563.304, 346.962 562.020 C 349.073 560.891, 349.723 557.565, 348.038 556.523 C 347.433 556.150, 347.488 555.023, 348.185 553.494 C 349.971 549.574, 346.663 546.881, 342.250 548.662" stroke="none" fill="#441711" fill-rule="evenodd"/></svg>